HIERARCHY
ROOT Hips
{
  OFFSET 16.9005 95.9891 -11.0274
  CHANNELS 6 Xposition Yposition Zposition Zrotation Xrotation Yrotation
  JOINT Spine
  {
    OFFSET 1.91935e-005 13.8508 -0.0115798
    CHANNELS 3 Zrotation Xrotation Yrotation
    JOINT Spine1
    {
      OFFSET 2.01671e-005 14.5489 -0.00726093
      CHANNELS 3 Zrotation Xrotation Yrotation
      JOINT Spine2
      {
        OFFSET 3.28232e-005 23.6683 -0.00102819
        CHANNELS 3 Zrotation Xrotation Yrotation
        JOINT Neck
        {
          OFFSET 5.3339e-005 39.6533 18.0245
          CHANNELS 3 Zrotation Xrotation Yrotation
          End Site
          {
            OFFSET 2.57534e-005 6.58935 12.9891
          }
        }
        JOINT RightShoulder
        {
          OFFSET -3.40283 45.3991 -4.38505
          CHANNELS 3 Zrotation Xrotation Yrotation
          JOINT RightArm
          {
            OFFSET -47.8656 0.792585 6.00882e-005
            CHANNELS 3 Zrotation Xrotation Yrotation
            JOINT RightArmRoll
            {
              OFFSET 0 0 0
              CHANNELS 3 Zrotation Xrotation Yrotation
              JOINT RightForeArm
              {
                OFFSET -46.3984 -1.27243 -0.127619
                CHANNELS 3 Zrotation Xrotation Yrotation
                JOINT RightForeArmRoll
                {
                  OFFSET 0 0 0
                  CHANNELS 3 Zrotation Xrotation Yrotation
                  JOINT RightHand
                  {
                    OFFSET -60.793 -1.80179 1.17392
                    CHANNELS 3 Zrotation Xrotation Yrotation
                    JOINT RightHandMiddle1
                    {
                      OFFSET -33.8536 2.82406 3.45537
                      CHANNELS 3 Zrotation Xrotation Yrotation
                      JOINT RightHandMiddle2
                      {
                        OFFSET -20.444 -2.79565 1.03697
                        CHANNELS 3 Zrotation Xrotation Yrotation
                        End Site
                        {
                          OFFSET -15.1741 -2.07501 0.76966
                        }
                      }
                    }
                  }
                }
              }
            }
          }
        }
        JOINT LeftShoulder
        {
          OFFSET 3.40295 45.3991 -4.38507
          CHANNELS 3 Zrotation Xrotation Yrotation
          JOINT LeftArm
          {
            OFFSET 47.8656 0.792458 -6.16846e-005
            CHANNELS 3 Zrotation Xrotation Yrotation
            JOINT LeftArmRoll
            {
              OFFSET 0 0 0
              CHANNELS 3 Zrotation Xrotation Yrotation
              JOINT LeftForeArm
              {
                OFFSET 46.3984 -1.27255 -0.127733
                CHANNELS 3 Zrotation Xrotation Yrotation
                JOINT LeftForeArmRoll
                {
                  OFFSET 0 0 0
                  CHANNELS 3 Zrotation Xrotation Yrotation
                  JOINT LeftHand
                  {
                    OFFSET 60.793 -1.80194 1.17376
                    CHANNELS 3 Zrotation Xrotation Yrotation
                    JOINT LeftHandMiddle1
                    {
                      OFFSET 33.8536 2.82397 3.45529
                      CHANNELS 3 Zrotation Xrotation Yrotation
                      JOINT LeftHandMiddle2
                      {
                        OFFSET 20.444 -2.79572 1.03691
                        CHANNELS 3 Zrotation Xrotation Yrotation
                        End Site
                        {
                          OFFSET 15.174 -2.07503 0.76962
                        }
                      }
                    }
                  }
                }
              }
            }
          }
        }
      }
    }
  }
  JOINT RightUpLeg
  {
    OFFSET -16.1028 2.3822e-005 2.51345e-005
    CHANNELS 3 Zrotation Xrotation Yrotation
    JOINT RightUpLegRoll
    {
      OFFSET 0 0 0
      CHANNELS 3 Zrotation Xrotation Yrotation
      JOINT RightLeg
      {
        OFFSET -2.53836 -32.8386 2.11422
        CHANNELS 3 Zrotation Xrotation Yrotation
        JOINT RightLegRoll
        {
          OFFSET 0 0 0
          CHANNELS 3 Zrotation Xrotation Yrotation
          JOINT RightFoot
          {
            OFFSET -2.61774 -34.4235 -3.34224
            CHANNELS 3 Zrotation Xrotation Yrotation
            JOINT RightToeBase
            {
              OFFSET -5.26104 -23.2561 32.3599
              CHANNELS 3 Zrotation Xrotation Yrotation
              End Site
              {
                OFFSET 0 0 0
              }
            }
            JOINT RightFootPinky1
            {
              OFFSET -5.26105 -23.2561 32.3599
              CHANNELS 3 Zrotation Xrotation Yrotation
              End Site
              {
                OFFSET 0 0 0
              }
            }
          }
        }
      }
    }
  }
  JOINT LeftUpLeg
  {
    OFFSET 16.1028 -2.1007e-005 -1.60204e-005
    CHANNELS 3 Zrotation Xrotation Yrotation
    JOINT LeftUpLegRoll
    {
      OFFSET 0 0 0
      CHANNELS 3 Zrotation Xrotation Yrotation
      JOINT LeftLeg
      {
        OFFSET 2.53826 -32.8386 2.11421
        CHANNELS 3 Zrotation Xrotation Yrotation
        JOINT LeftLegRoll
        {
          OFFSET 0 0 0
          CHANNELS 3 Zrotation Xrotation Yrotation
          JOINT LeftFoot
          {
            OFFSET 2.61762 -34.4235 -3.34225
            CHANNELS 3 Zrotation Xrotation Yrotation
            JOINT LeftToeBase
            {
              OFFSET 5.26106 -23.2562 32.3598
              CHANNELS 3 Zrotation Xrotation Yrotation
              End Site
              {
                OFFSET 0 0 0
              }
            }
            JOINT LeftFootPinky1
            {
              OFFSET 5.26106 -23.2562 32.3598
              CHANNELS 3 Zrotation Xrotation Yrotation
              End Site
              {
                OFFSET 0 0 0
              }
            }
          }
        }
      }
    }
  }
}
MOTION
Frames:	5
Frame Time:	0.0333333
8.85847 79.5929 30.9434 -0.142212 8.50589 24.655 -2.4849 10.3503 2.00852 -5.48105 20.594 4.60824 -5.48109 20.5943 4.59481 -9.6745 -15.4245 5.75411 22.5344 3.45816 8.42095 35.6975 -32.1269 38.1345 2.37107e-007 -4.81506e-007 -2.66346e-007 7.05152 3.36099 81.7175 0.0033281 -0.173478 -0.00513317 -18.8379 -0.627603 1.49336 62.8132 2.74786 -1.20184 62.8132 2.74786 -1.20183 -25.5085 1.20082 -0.283443 -19.1544 -36.7738 5.38833 -2.26607e-007 -4.29426e-006 3.41135e-007 -7.55156 5.45978 -102.566 -0.107034 -6.00824 0.172626 -0.480983 0.203478 1.23553 -62.8132 2.74786 1.20184 -62.8132 2.74786 1.20183 -5.06078 -53.0688 10.6571 -6.66193e-006 9.389e-012 -4.28911e-007 162.71 67.9632 -167.408 -2.44258 -1.23831 -22.3762 20.7066 -25.8346 5.58378 19.2468 -30.8611 23.8732 1.98785e-016 3.18055e-015 -1.19271e-015 0.0660593 -71.0658 -0.781051 -3.33096e-006 4.70086e-012 -2.14454e-007 -27.136 80.7322 30.8095 -0.339619 0.283576 -3.58729 0.0376164 -18.8635 -2.28066 -0.741374 -0.466154 0.000112681 -1.2424e-017 0 -0 
8.93457 79.7929 31.6442 0.964646 8.28753 26.3792 -1.65117 10.4507 2.13979 -3.80271 20.8264 4.70856 -3.80271 20.8264 4.71084 -6.52962 -14.3886 4.79451 24.7802 3.73525 8.50799 42.1442 -34.5171 45.8497 2.37107e-007 -4.81506e-007 -2.66346e-007 7.25425 3.88223 87.0922 -0.00856102 0.440015 0.0130774 -11.5863 -0.22506 0.587645 62.8132 2.74786 -1.20184 62.8132 2.74786 -1.20183 -24.835 1.32082 -0.752087 -21.3326 -31.0411 8.49692 -2.26607e-007 -4.29426e-006 3.41135e-007 -7.50275 4.94224 -97.5721 -0.0606248 -3.2816 0.0955542 -0.157961 0.174599 0.893504 -62.8132 2.74786 1.20184 -62.8132 2.74786 1.20183 -4.78835 -58.5967 10.9051 -6.66193e-006 9.38582e-012 -4.28911e-007 163.654 66.1786 -168.417 -2.87183 -1.34447 -25.9711 15.4821 -17.6695 2.63998 24.9411 -29.3686 18.5914 -3.37934e-015 0 -3.57812e-015 -1.44062 -69.5188 -0.618769 -3.33096e-006 4.69768e-012 -2.14454e-007 -23.9829 79.7956 27.6189 -0.508123 0.438425 -5.44194 1.29737 -18.6528 -2.15503 -0.742902 -0.46451 0.0105231 0 4.96962e-017 -0 
8.89262 81.4151 32.233 2.31127 8.14345 27.9018 -0.6726 10.34 2.41064 -1.84113 20.6413 5.07376 -1.8411 20.641 5.07369 -1.88025 -12.985 2.55543 26.5809 4.03272 8.77956 48.0603 -36.7558 50.3814 2.37107e-007 -4.81506e-007 -2.66346e-007 7.36116 4.23764 90.671 0.0224676 -1.18282 -0.034822 -6.18263 -0.16635 0.506425 62.8132 2.74786 -1.20184 62.8132 2.74786 -1.20183 -23.1652 1.38554 -1.19699 -26.8798 -23.5269 8.75836 -2.26607e-007 -4.29426e-006 3.41135e-007 -7.38628 4.33338 -91.6345 -0.00601317 -0.313482 0.0092725 0.602003 0.136674 0.535342 -62.8132 2.74786 1.20184 -62.8132 2.74786 1.20183 -7.81684 -59.3986 8.68237 -6.66193e-006 9.38264e-012 -4.28911e-007 161.509 69.8699 -166.137 -3.26059 -1.41644 -29.1857 10.161 -14.835 1.72415 27.897 -21.4911 -1.63252 1.78906e-015 3.18055e-015 1.19271e-015 -3.37796 -65.5579 -0.686335 -3.33096e-006 4.68814e-012 -2.14454e-007 -15.3142 75.5643 18.7892 -0.638724 0.565639 -6.91916 2.1578 -17.1893 -2.0071 -0.742902 -0.46451 0.0105231 -2.48481e-017 9.93923e-017 3.18056e-015 
8.94149 84.4572 32.7742 3.62303 8.37905 29.2213 0.360037 10.0501 2.78133 0.220518 20.1062 5.63096 0.220519 20.1062 5.63097 2.83951 -13.1433 -0.718261 28.2724 4.32681 9.05828 53.2151 -40.4787 52.4601 2.37107e-007 -4.81506e-007 -2.66346e-007 7.43144 4.53321 93.5892 0.0925518 -5.13422 -0.148113 -2.03466 -0.284846 0.817107 62.8132 2.74786 -1.20184 62.8132 2.74786 -1.20183 -20.368 1.29422 -1.31936 -35.3478 -15.7479 7.2042 -2.26607e-007 -4.29426e-006 3.41135e-007 -7.15504 3.60202 -84.2694 0.043097 2.16737 -0.0650686 1.95699 0.0886483 0.235347 -62.8132 2.74786 1.20184 -62.8132 2.74786 1.20183 -13.4276 -56.8292 2.9853 -6.66193e-006 9.39218e-012 -4.28911e-007 156.536 75.0949 -160.972 -3.14301 -1.39705 -28.2169 8.44499 -14.9856 1.79813 25.9195 -19.3763 -0.356935 1.98785e-016 3.18055e-015 -0 -6.2521 -59.3786 -1.72078 -3.33096e-006 4.6945e-012 -2.14454e-007 -8.24352 67.4962 11.4223 -0.697226 0.624803 -7.5932 2.36981 -14.4738 -1.8349 -0.742902 -0.464511 0.010523 1.2424e-017 0 3.18056e-015 
9.14442 88.3879 33.4188 4.44417 8.79353 30.0602 1.47537 9.61487 3.1814 2.45147 19.2962 6.24255 2.45148 19.2957 6.24255 5.82909 -15.0886 -4.41772 29.1826 4.55128 9.37604 55.7731 -43.3129 51.4659 2.37107e-007 -4.81506e-007 -2.66346e-007 7.48369 4.81479 96.3368 0.184746 -11.1054 -0.312197 -1.20209 -0.544712 1.46737 62.8132 2.74786 -1.20184 62.8132 2.74786 -1.20183 -17.7907 1.18713 -1.36887 -44.5437 -7.02577 4.52892 -2.26607e-007 -4.29426e-006 3.41135e-007 -6.73204 2.73242 -74.9878 0.0758023 3.73293 -0.113161 5.71695 -0.00317209 0.00970759 -62.8132 2.74786 1.20184 -62.8132 2.74786 1.20183 -18.547 -51.0686 -0.984325 -6.66193e-006 9.39218e-012 -4.28911e-007 128.341 83.4106 -132.443 -2.6254 -1.28702 -23.914 11.273 -17.8629 2.77941 18.3814 -15.5122 -0.355656 -4.37326e-015 3.18055e-015 1.98785e-015 -8.46724 -51.668 -2.80018 -3.33096e-006 4.69768e-012 -2.14454e-007 -4.23401 56.3892 7.00005 -0.682936 0.610223 -7.42782 1.94843 -10.7769 -1.62156 -0.748626 -0.466429 0.0143672 1.2424e-017 -2.48481e-017 6.36111e-015 
